<svg width="134" height="155" viewBox="0 0 134 155" fill="none" xmlns="http://www.w3.org/2000/svg">
<rect width="134" height="155" rx="8" fill="#F4F4F4"/>
<circle cx="67" cy="58" r="38" fill="#E4E4E4"/>
<path d="M77.8334 44.3334C74.6172 44.3334 72 46.9506 72 50.1667C72 50.6274 72.3727 51.0001 72.8334 51.0001C73.294 51.0001 73.6667 50.6274 73.6667 50.1667C73.6666 47.8693 75.5359 46 77.8334 46C78.294 46 78.6667 45.6273 78.6667 45.1667C78.6666 44.7061 78.294 44.3334 77.8334 44.3334Z" fill="black"/>
<path d="M57.4882 51.4883C56.8379 52.1377 56.8379 53.1956 57.4882 53.8451C57.8129 54.1697 58.2401 54.3326 58.6665 54.3326C59.0929 54.3326 59.5202 54.1698 59.8449 53.8451C60.4951 53.1956 60.4951 52.1377 59.8449 51.4883C59.1955 50.8389 58.1376 50.8389 57.4882 51.4883Z" fill="black"/>
<path d="M74.155 70.5117C74.4797 70.8364 74.907 70.9992 75.3334 70.9992C75.7598 70.9992 76.1871 70.8365 76.5118 70.5117C77.162 69.8623 77.162 68.8044 76.5118 68.1549C75.8623 67.5055 74.8044 67.5055 74.155 68.1549C73.5048 68.8044 73.5048 69.8624 74.155 70.5117Z" fill="black"/>
<path d="M84.3167 43.6837C82.0075 41.3746 78.6971 40.4793 75.4648 41.2965C71.5504 42.2822 68.8171 45.8805 68.6633 50.2513C68.6474 50.7057 68.5031 51.1843 68.2743 51.668C63.6767 48.0447 59.1766 45.9762 56.1405 46.001C54.8805 46.036 53.8728 46.4218 53.1451 47.1494C52.4175 47.8771 52.0316 48.8848 51.9966 50.1455C51.9296 52.6629 53.2935 56.0423 55.6796 59.618C53.5932 60.0299 51.6675 61.0078 50.1676 62.5083C45.9432 66.7326 45.9432 73.6069 50.1676 77.8312C52.2799 79.9433 55.0547 80.9998 57.8295 80.9998C60.6042 80.9998 63.3791 79.9433 65.4913 77.8312C66.9925 76.3294 67.9708 74.403 68.3821 72.3161C71.8724 74.6449 75.1762 76.004 77.6722 76.004C77.7341 76.004 77.7951 76.0032 77.8562 76.0015C79.1162 75.9682 80.1239 75.5816 80.8507 74.8548C81.5784 74.1271 81.965 73.1194 81.9984 71.8603C82.0802 68.8142 79.9632 64.3237 76.3327 59.725C76.816 59.4965 77.2945 59.3523 77.7487 59.3365C82.1189 59.1826 85.7182 56.4494 86.7039 52.5345C87.518 49.3015 86.6259 45.9929 84.3167 43.6837ZM64.3146 76.6484C60.7403 80.2226 54.9249 80.2226 51.3507 76.6484C47.7764 73.0742 47.7764 67.2587 51.3507 63.6845C52.7917 62.2435 54.6928 61.3368 56.7426 61.1024C57.1292 61.6274 57.5276 62.151 57.9546 62.6785C53.7978 62.5601 50.3319 65.9933 50.3326 70.1664C50.3326 74.3022 53.6969 77.6664 57.8326 77.6664C61.9683 77.6664 65.3326 74.3021 65.3326 70.1664C65.3326 70.1271 65.3221 70.0862 65.3214 70.0469C65.8487 70.4736 66.372 70.8701 66.8967 71.2565C66.6623 73.3065 65.7555 75.2067 64.3146 76.6484ZM63.3632 68.3843C63.5667 68.9987 63.666 69.5838 63.666 70.1666C63.666 73.3827 61.0488 75.9999 57.8326 75.9999C54.6165 75.9998 51.9993 73.3826 51.9993 70.1665C51.9993 66.9503 54.6165 64.3331 57.8327 64.3331C58.4153 64.3331 59.0005 64.4324 59.615 64.6358C60.1952 65.2812 60.7999 65.9249 61.4371 66.5621C61.4371 66.5621 61.4371 66.5621 61.4371 66.5629C62.0742 67.1986 62.7179 67.8041 63.3632 68.3843ZM80.3302 71.812C80.309 72.6307 80.0868 73.2557 79.6702 73.6716C79.2551 74.0874 78.6301 74.3096 77.8107 74.3308C75.4263 74.4113 71.94 72.8383 68.2798 70.2076C68.2694 70.1994 68.2657 70.1857 68.255 70.178C67.3244 69.5111 66.4162 68.7935 65.5273 68.0453C65.4291 67.9619 65.331 67.8829 65.2331 67.7982C64.335 67.0291 63.458 66.2262 62.6153 65.3838C61.7714 64.5395 60.9661 63.6601 60.1948 62.759C60.1162 62.6678 60.0426 62.5768 59.9651 62.4855C59.2131 61.5927 58.4922 60.6796 57.8211 59.7441C57.8138 59.7339 57.8006 59.7306 57.7928 59.7208C55.1698 56.069 53.6031 52.5908 53.6675 50.1901C53.6895 49.3706 53.9117 48.744 54.3275 48.3282C54.7434 47.9123 55.37 47.6901 56.1887 47.6682C58.8607 47.5686 63.0934 49.6657 67.3828 53.0817C66.6971 53.964 65.8262 54.8012 64.9842 55.4693C64.0825 56.1862 63.7961 57.4648 64.3031 58.5097C64.7222 59.3723 65.4278 60.6069 66.41 61.5891C67.3923 62.5714 68.6268 63.2769 69.4895 63.6961C69.8362 63.8645 70.2089 63.9451 70.5775 63.9451C71.3214 63.9451 72.0505 63.618 72.5299 63.015C73.1979 62.1732 74.035 61.3023 74.9171 60.6168C78.3317 64.9078 80.4025 69.1533 80.3302 71.812ZM85.0853 52.1269C84.2828 55.3146 81.31 57.542 77.6894 57.6698C74.7841 57.7715 72.0066 60.9933 71.2246 61.978C70.9902 62.2743 70.5662 62.367 70.2171 62.1969C69.47 61.834 68.4071 61.2294 67.5885 60.4106C66.7698 59.5919 66.1651 58.5291 65.8021 57.782C65.6328 57.4329 65.7248 57.0098 66.021 56.7745C67.0057 55.9925 70.2276 53.2149 70.3293 50.3097C70.4571 46.6883 72.6845 43.7162 75.8714 42.9138C76.5216 42.7502 77.1751 42.6697 77.8188 42.6697C79.8085 42.6697 81.7079 43.4355 83.1362 44.8629C85.0259 46.7534 85.755 49.469 85.0853 52.1269Z" fill="black"/>
<path d="M51.8566 121.43C52.6366 121.598 53.2666 121.97 53.7466 122.546C54.2386 123.122 54.4846 123.8 54.4846 124.58C54.4846 125.612 54.1306 126.44 53.4226 127.064C52.7266 127.688 51.7126 128 50.3806 128H45.6646V115.31H50.3086C51.5806 115.31 52.5466 115.592 53.2066 116.156C53.8666 116.72 54.1966 117.494 54.1966 118.478C54.1966 119.294 53.9746 119.954 53.5306 120.458C53.0986 120.962 52.5406 121.286 51.8566 121.43ZM47.3026 120.872H50.0386C50.8426 120.872 51.4546 120.686 51.8746 120.314C52.3066 119.942 52.5226 119.42 52.5226 118.748C52.5226 118.1 52.3126 117.59 51.8926 117.218C51.4726 116.846 50.8306 116.66 49.9666 116.66H47.3026V120.872ZM50.0746 126.632C50.9386 126.632 51.6046 126.434 52.0726 126.038C52.5526 125.642 52.7926 125.084 52.7926 124.364C52.7926 123.656 52.5466 123.104 52.0546 122.708C51.5746 122.3 50.9026 122.096 50.0386 122.096H47.3026V126.632H50.0746ZM60.5779 117.992C61.5379 117.992 62.3479 118.232 63.0079 118.712C63.6799 119.192 64.1479 119.834 64.4119 120.638V118.118H66.0499V128H64.4119V125.48C64.1479 126.284 63.6799 126.926 63.0079 127.406C62.3479 127.886 61.5379 128.126 60.5779 128.126C59.7019 128.126 58.9219 127.922 58.2379 127.514C57.5539 127.106 57.0139 126.524 56.6179 125.768C56.2339 125 56.0419 124.1 56.0419 123.068C56.0419 122.036 56.2339 121.136 56.6179 120.368C57.0139 119.6 57.5539 119.012 58.2379 118.604C58.9219 118.196 59.7019 117.992 60.5779 117.992ZM61.0459 119.45C60.0379 119.45 59.2279 119.774 58.6159 120.422C58.0159 121.058 57.7159 121.94 57.7159 123.068C57.7159 124.196 58.0159 125.084 58.6159 125.732C59.2279 126.368 60.0379 126.686 61.0459 126.686C61.6939 126.686 62.2699 126.536 62.7739 126.236C63.2899 125.936 63.6919 125.516 63.9799 124.976C64.2679 124.424 64.4119 123.788 64.4119 123.068C64.4119 122.348 64.2679 121.712 63.9799 121.16C63.6919 120.608 63.2899 120.188 62.7739 119.9C62.2699 119.6 61.6939 119.45 61.0459 119.45ZM74.1108 117.992C74.9868 117.992 75.7668 118.196 76.4508 118.604C77.1348 119.012 77.6688 119.6 78.0528 120.368C78.4488 121.136 78.6468 122.036 78.6468 123.068C78.6468 124.1 78.4488 125 78.0528 125.768C77.6688 126.524 77.1348 127.106 76.4508 127.514C75.7668 127.922 74.9868 128.126 74.1108 128.126C73.1508 128.126 72.3348 127.886 71.6628 127.406C71.0028 126.914 70.5468 126.272 70.2948 125.48V128H68.6568V114.68H70.2948V120.638C70.5468 119.846 71.0028 119.21 71.6628 118.73C72.3348 118.238 73.1508 117.992 74.1108 117.992ZM73.6428 119.45C73.0068 119.45 72.4308 119.6 71.9148 119.9C71.3988 120.188 70.9968 120.608 70.7088 121.16C70.4208 121.712 70.2768 122.348 70.2768 123.068C70.2768 123.788 70.4208 124.424 70.7088 124.976C70.9968 125.516 71.3988 125.936 71.9148 126.236C72.4308 126.536 73.0068 126.686 73.6428 126.686C74.6628 126.686 75.4728 126.368 76.0728 125.732C76.6848 125.084 76.9908 124.196 76.9908 123.068C76.9908 121.94 76.6848 121.058 76.0728 120.422C75.4728 119.774 74.6628 119.45 73.6428 119.45ZM81.4697 118.118L84.6737 125.894L87.6437 118.118H89.4617L83.5937 132.68H81.7397L83.7917 127.838L79.6337 118.118H81.4697Z" fill="#0C0D36"/>
</svg>
