<svg width="134" height="155" viewBox="0 0 134 155" fill="none" xmlns="http://www.w3.org/2000/svg">
<rect width="134" height="155" rx="8" fill="#F4F4F4"/>
<circle cx="67" cy="58" r="38" fill="#E4E4E4"/>
<path d="M55.8611 72.1845H51.1116C50.6801 72.1845 50.3303 72.5343 50.3303 72.9658C50.3303 73.3972 50.6801 73.747 51.1116 73.747H55.861C56.2925 73.747 56.6423 73.3972 56.6423 72.9658C56.6423 72.5343 56.2925 72.1845 55.8611 72.1845Z" fill="black"/>
<path d="M60.1001 72.6672C59.9723 72.3551 59.6447 72.1576 59.3089 72.1879C58.9859 72.2172 58.7087 72.4508 58.6243 72.7636C58.5406 73.0743 58.6634 73.4134 58.9242 73.6009C59.1882 73.7907 59.556 73.7932 59.8232 73.6083C60.1218 73.4016 60.2399 73.0027 60.1001 72.6672Z" fill="black"/>
<path d="M59.393 68.271H49.752C49.3205 68.271 48.9707 68.6208 48.9707 69.0522C48.9707 69.4837 49.3205 69.8335 49.752 69.8335H59.393C59.8245 69.8335 60.1742 69.4837 60.1742 69.0522C60.1742 68.6208 59.8245 68.271 59.393 68.271Z" fill="black"/>
<path d="M56.3893 65.1387C56.3893 64.7072 56.0395 64.3574 55.608 64.3574H48.7812C48.3498 64.3574 48 64.7072 48 65.1387C48 65.5702 48.3498 65.9199 48.7812 65.9199H55.608C56.0395 65.9199 56.3893 65.5702 56.3893 65.1387Z" fill="black"/>
<path d="M87.0658 68.1743C86.9337 63.7452 83.2896 60.1829 78.8292 60.1829H74.8651L72.6102 46.6411C72.492 45.8268 72.0591 45.1143 71.3904 44.6339C70.7192 44.1517 69.9019 43.9694 69.0895 44.1205C67.4331 44.4285 66.9772 44.4945 66.8529 44.5063C66.6228 44.5284 66.4142 44.6512 66.2834 44.8418C66.1525 45.0323 66.1128 45.2711 66.1749 45.4938L66.369 46.1902C64.95 46.0203 63.6506 45.2478 62.8256 44.0389L62.3482 43.3405C62.2227 43.1567 62.0246 43.0352 61.8039 43.0066C61.5833 42.9777 61.3608 43.0447 61.1924 43.1902L57.4565 46.4188C57.0379 46.7331 56.6334 47.1427 56.2539 47.6366C56.2537 47.6369 56.2535 47.6372 56.2533 47.6374C55.1935 49.0136 54.2766 51.0756 53.7495 53.2432C53.1711 53.297 52.6121 53.5651 52.2042 54.0377L51.2996 55.0859C50.8928 55.5572 50.6945 56.1586 50.741 56.7794C50.7876 57.4002 51.0734 57.9652 51.5459 58.3706L66.9342 71.5731C67.1951 71.7925 67.4671 71.9965 67.7485 72.1845H62.9247C62.4932 72.1845 62.1435 72.5343 62.1435 72.9658C62.1435 73.3973 62.4932 73.747 62.9247 73.747H85.6743C86.9567 73.747 88 72.7037 88 71.4213V70.0367C88 69.2757 87.6326 68.5988 87.0658 68.1743ZM71.9161 51.9855H69.6062L69.0313 49.9227H71.5726L71.9161 51.9855ZM72.1763 53.548L72.5368 55.7133H70.6452L70.0417 53.548H72.1763ZM72.7971 57.2758L73.3499 60.5958C73.1091 60.6668 72.8504 60.6636 72.5979 60.582C72.1775 60.4461 71.8705 60.1234 71.7537 59.6906L71.0807 57.2758H72.7971ZM69.3752 45.6566C69.765 45.5841 70.1568 45.6716 70.4788 45.9029C70.8008 46.1342 71.0089 46.4779 71.0646 46.8706C71.0655 46.8768 71.0664 46.883 71.0675 46.8891L71.3125 48.3602H68.5958L67.9159 45.9207C68.2557 45.8618 68.7245 45.7777 69.3752 45.6566ZM58.457 47.6192L61.552 44.9445C62.7566 46.6929 64.7207 47.7388 66.8139 47.7866L66.9738 48.3601H66.9275C66.496 48.3601 66.1462 48.7098 66.1462 49.1413C66.1462 49.5728 66.496 49.9226 66.9275 49.9226H67.4092L67.9842 51.9854H67.4764C67.045 51.9854 66.6952 52.3352 66.6952 52.7666C66.6952 53.1981 67.045 53.5479 67.4764 53.5479H68.4197L69.0232 55.7132H68.1014C67.67 55.7132 67.3202 56.063 67.3202 56.4945C67.3202 56.9259 67.67 57.2757 68.1014 57.2757H69.4587L70.2469 60.1036C70.4985 61.0367 71.1978 61.7713 72.1173 62.0686C72.2466 62.1104 72.3773 62.1426 72.5087 62.1654L71.7475 63.2641C71.5018 63.6188 71.5902 64.1056 71.9448 64.3513C72.0805 64.4452 72.2356 64.4904 72.389 64.4904C72.6366 64.4904 72.8802 64.373 73.0319 64.154L74.7006 61.7453H78.8291C82.2707 61.7453 85.1125 64.3623 85.4692 67.7109H72.896C72.1428 67.7109 71.4097 67.4454 70.8311 66.9632L59.7242 57.4341C61.0423 56.3813 61.8282 54.7481 61.8282 52.9618C61.8282 51.5916 61.3337 50.2681 60.4358 49.2348C59.8567 48.5684 59.135 48.0506 58.3334 47.7154C58.3593 47.695 58.3853 47.6752 58.4112 47.6559C58.4269 47.6443 58.4422 47.632 58.457 47.6192ZM57.2106 48.9795C58.9809 49.4556 60.2657 51.0925 60.2657 52.9618C60.2657 54.3722 59.6025 55.6467 58.508 56.3907L55.4792 53.7922C55.4099 53.7327 55.3378 53.678 55.2638 53.628C55.691 51.8595 56.3934 50.1832 57.2106 48.9795ZM86.4375 71.4213C86.4375 71.8421 86.0951 72.1845 85.6743 72.1845H72.896C71.0856 72.1845 69.3255 71.5427 67.9459 70.3823L52.5633 57.1848C52.4082 57.0517 52.3144 56.8663 52.2992 56.6626C52.2839 56.4588 52.349 56.2614 52.4825 56.1068L53.3871 55.0586C53.5377 54.8841 53.751 54.7945 53.9655 54.7945C54.1415 54.7945 54.3183 54.8548 54.4619 54.978L69.8178 68.1526C69.8203 68.1548 69.8228 68.157 69.8254 68.1591C70.6851 68.8777 71.7756 69.2734 72.896 69.2734H85.6743C86.0951 69.2734 86.4375 69.6159 86.4375 70.0367V71.4213Z" fill="black"/>
<path d="M36.5915 128.126C35.7635 128.126 35.0195 127.982 34.3595 127.694C33.7115 127.394 33.2015 126.986 32.8295 126.47C32.4575 125.942 32.2655 125.336 32.2535 124.652H33.9995C34.0595 125.24 34.2995 125.738 34.7195 126.146C35.1515 126.542 35.7755 126.74 36.5915 126.74C37.3715 126.74 37.9835 126.548 38.4275 126.164C38.8835 125.768 39.1115 125.264 39.1115 124.652C39.1115 124.172 38.9795 123.782 38.7155 123.482C38.4515 123.182 38.1215 122.954 37.7255 122.798C37.3295 122.642 36.7955 122.474 36.1235 122.294C35.2955 122.078 34.6295 121.862 34.1255 121.646C33.6335 121.43 33.2075 121.094 32.8475 120.638C32.4995 120.17 32.3255 119.546 32.3255 118.766C32.3255 118.082 32.4995 117.476 32.8475 116.948C33.1955 116.42 33.6815 116.012 34.3055 115.724C34.9415 115.436 35.6675 115.292 36.4835 115.292C37.6595 115.292 38.6195 115.586 39.3635 116.174C40.1195 116.762 40.5455 117.542 40.6415 118.514H38.8415C38.7815 118.034 38.5295 117.614 38.0855 117.254C37.6415 116.882 37.0535 116.696 36.3215 116.696C35.6375 116.696 35.0795 116.876 34.6475 117.236C34.2155 117.584 33.9995 118.076 33.9995 118.712C33.9995 119.168 34.1255 119.54 34.3775 119.828C34.6415 120.116 34.9595 120.338 35.3315 120.494C35.7155 120.638 36.2495 120.806 36.9335 120.998C37.7615 121.226 38.4275 121.454 38.9315 121.682C39.4355 121.898 39.8675 122.24 40.2275 122.708C40.5875 123.164 40.7675 123.788 40.7675 124.58C40.7675 125.192 40.6055 125.768 40.2815 126.308C39.9575 126.848 39.4775 127.286 38.8415 127.622C38.2055 127.958 37.4555 128.126 36.5915 128.126ZM47.984 117.956C49.184 117.956 50.156 118.322 50.9 119.054C51.644 119.774 52.016 120.818 52.016 122.186V128H50.396V122.42C50.396 121.436 50.15 120.686 49.658 120.17C49.166 119.642 48.494 119.378 47.642 119.378C46.778 119.378 46.088 119.648 45.572 120.188C45.068 120.728 44.816 121.514 44.816 122.546V128H43.178V118.136H44.816V119.54C45.14 119.036 45.578 118.646 46.13 118.37C46.694 118.094 47.312 117.956 47.984 117.956ZM63.6917 122.69C63.6917 123.002 63.6737 123.332 63.6377 123.68H55.7537C55.8137 124.652 56.1437 125.414 56.7437 125.966C57.3557 126.506 58.0937 126.776 58.9577 126.776C59.6657 126.776 60.2537 126.614 60.7217 126.29C61.2017 125.954 61.5377 125.51 61.7297 124.958H63.4937C63.2297 125.906 62.7017 126.68 61.9097 127.28C61.1177 127.868 60.1337 128.162 58.9577 128.162C58.0217 128.162 57.1817 127.952 56.4377 127.532C55.7057 127.112 55.1297 126.518 54.7097 125.75C54.2897 124.97 54.0797 124.07 54.0797 123.05C54.0797 122.03 54.2837 121.136 54.6917 120.368C55.0997 119.6 55.6697 119.012 56.4017 118.604C57.1457 118.184 57.9977 117.974 58.9577 117.974C59.8937 117.974 60.7217 118.178 61.4417 118.586C62.1617 118.994 62.7137 119.558 63.0977 120.278C63.4937 120.986 63.6917 121.79 63.6917 122.69ZM61.9997 122.348C61.9997 121.724 61.8617 121.19 61.5857 120.746C61.3097 120.29 60.9317 119.948 60.4517 119.72C59.9837 119.48 59.4617 119.36 58.8857 119.36C58.0577 119.36 57.3497 119.624 56.7617 120.152C56.1857 120.68 55.8557 121.412 55.7717 122.348H61.9997ZM65.2418 123.032C65.2418 122.024 65.4458 121.142 65.8538 120.386C66.2618 119.618 66.8198 119.024 67.5278 118.604C68.2478 118.184 69.0458 117.974 69.9218 117.974C70.7858 117.974 71.5358 118.16 72.1718 118.532C72.8078 118.904 73.2818 119.372 73.5938 119.936V118.136H75.2498V128H73.5938V126.164C73.2698 126.74 72.7838 127.22 72.1358 127.604C71.4998 127.976 70.7558 128.162 69.9038 128.162C69.0278 128.162 68.2358 127.946 67.5278 127.514C66.8198 127.082 66.2618 126.476 65.8538 125.696C65.4458 124.916 65.2418 124.028 65.2418 123.032ZM73.5938 123.05C73.5938 122.306 73.4438 121.658 73.1438 121.106C72.8438 120.554 72.4358 120.134 71.9198 119.846C71.4158 119.546 70.8578 119.396 70.2458 119.396C69.6338 119.396 69.0758 119.54 68.5718 119.828C68.0678 120.116 67.6658 120.536 67.3658 121.088C67.0658 121.64 66.9158 122.288 66.9158 123.032C66.9158 123.788 67.0658 124.448 67.3658 125.012C67.6658 125.564 68.0678 125.99 68.5718 126.29C69.0758 126.578 69.6338 126.722 70.2458 126.722C70.8578 126.722 71.4158 126.578 71.9198 126.29C72.4358 125.99 72.8438 125.564 73.1438 125.012C73.4438 124.448 73.5938 123.794 73.5938 123.05ZM83.5258 128L79.6558 123.644V128H78.0178V114.68H79.6558V122.51L83.4538 118.136H85.7398L81.0958 123.05L85.7578 128H83.5258ZM96.2815 122.69C96.2815 123.002 96.2635 123.332 96.2275 123.68H88.3435C88.4035 124.652 88.7335 125.414 89.3335 125.966C89.9455 126.506 90.6835 126.776 91.5475 126.776C92.2555 126.776 92.8435 126.614 93.3115 126.29C93.7915 125.954 94.1275 125.51 94.3195 124.958H96.0835C95.8195 125.906 95.2915 126.68 94.4995 127.28C93.7075 127.868 92.7235 128.162 91.5475 128.162C90.6115 128.162 89.7715 127.952 89.0275 127.532C88.2955 127.112 87.7195 126.518 87.2995 125.75C86.8795 124.97 86.6695 124.07 86.6695 123.05C86.6695 122.03 86.8735 121.136 87.2815 120.368C87.6895 119.6 88.2595 119.012 88.9915 118.604C89.7355 118.184 90.5875 117.974 91.5475 117.974C92.4835 117.974 93.3115 118.178 94.0315 118.586C94.7515 118.994 95.3035 119.558 95.6875 120.278C96.0835 120.986 96.2815 121.79 96.2815 122.69ZM94.5895 122.348C94.5895 121.724 94.4515 121.19 94.1755 120.746C93.8995 120.29 93.5215 119.948 93.0415 119.72C92.5735 119.48 92.0515 119.36 91.4755 119.36C90.6475 119.36 89.9395 119.624 89.3515 120.152C88.7755 120.68 88.4455 121.412 88.3615 122.348H94.5895ZM100.082 119.738C100.37 119.174 100.778 118.736 101.306 118.424C101.846 118.112 102.5 117.956 103.268 117.956V119.648H102.836C101 119.648 100.082 120.644 100.082 122.636V128H98.4436V118.136H100.082V119.738Z" fill="#0C0D36"/>
</svg>
