<svg width="134" height="155" viewBox="0 0 134 155" fill="none" xmlns="http://www.w3.org/2000/svg">
<rect width="134" height="155" rx="8" fill="#F4F4F4"/>
<circle cx="67" cy="58" r="38" fill="#E4E4E4"/>
<path d="M65.6098 47.8461C65.7733 48.2385 66.2361 48.4313 66.6293 48.268C67.0227 48.1046 67.215 47.6416 67.052 47.2477C66.8894 46.855 66.4242 46.6624 66.0317 46.8258C65.6372 46.9899 65.4482 47.4518 65.6098 47.8461Z" fill="black"/>
<path d="M82.4815 66.3539H82.4558V65.8259C82.4558 62.0736 79.4004 59.0208 75.6448 59.0208C71.8892 59.0208 68.8338 62.0736 68.8338 65.8259V71.1948C68.8338 74.0856 66.4794 76.4375 63.5853 76.4375C61.4674 76.4375 59.5785 75.1637 58.7619 73.2636C59.5898 72.8326 60.1568 71.9671 60.1568 70.9713V69.7627C61.5363 68.8955 62.4555 67.3616 62.4555 65.6164V62.3104C65.3139 61.9281 66.7441 59.5477 66.8085 59.4379C67.0009 59.1096 66.9288 58.6905 66.6378 58.4454L63.2045 55.5531L73.5331 52.0412C75.412 51.4022 77.5238 51.9061 78.9578 53.2629C79.756 54.0188 80.9723 54.8877 82.5841 55.2464C83.2391 55.3923 84.8794 55.7717 84.8794 54.634V40.5592C84.8794 39.6925 83.9228 39.7546 83.3227 39.8185C81.7534 39.984 80.3048 40.678 79.0037 41.8878C77.5592 43.233 75.4427 43.7195 73.5691 43.0658L61.5374 38.8641C60.3141 38.3055 58.9625 38 57.5559 38C52.3587 38 48 42.3426 48 47.5473C48 48.6499 48.1887 49.7091 48.5344 50.6952C48.5444 50.7312 48.5566 50.7663 48.5714 50.8001C49.327 52.8768 50.7844 54.6194 52.6557 55.7408V65.6164C52.6557 67.3755 53.5895 68.9204 54.9873 69.7837V70.9713C54.9873 72.2641 55.9425 73.338 57.1847 73.5255C58.1545 76.1871 60.7077 78 63.5854 78C67.341 78 70.3964 74.9472 70.3964 71.1948V65.8259C70.3964 62.9352 72.7509 60.5833 75.6449 60.5833C78.539 60.5833 80.8934 62.9352 80.8934 65.8259V66.3539H80.8677C79.2254 66.3539 77.8892 67.6891 77.8892 69.3303V72.5327C77.8892 72.9642 78.239 73.314 78.6705 73.314H79.443V74.6446C79.443 75.0761 79.7927 75.4259 80.2242 75.4259C80.6557 75.4259 81.0055 75.0761 81.0055 74.6446V73.314H82.2748V74.6446C82.2748 75.0761 82.6246 75.4259 83.0561 75.4259C83.4876 75.4259 83.8373 75.0761 83.8373 74.6446V73.314H84.6788C85.1103 73.314 85.4601 72.9642 85.4601 72.5327V69.3303C85.46 67.6891 84.1238 66.3539 82.4815 66.3539ZM62.4555 60.7296V56.9652L65.0711 59.1686C64.608 59.7049 63.7355 60.4906 62.4555 60.7296ZM79.4513 51.6347V43.5445C80.0072 43.1336 80.4797 42.6296 81.063 42.2523C81.7442 41.8117 82.512 41.5071 83.3169 41.3934V53.7932C82.4929 53.6713 81.7049 53.3534 81.0084 52.9C80.442 52.5313 79.9861 52.042 79.4513 51.6347ZM50.4847 51.2671H53.5141C53.9455 51.2671 54.2953 50.9173 54.2953 50.4859C54.2953 50.0544 53.9455 49.7046 53.5141 49.7046H49.8591C49.7341 49.2602 49.6469 48.8004 49.6008 48.3286H53.4369C53.8684 48.3286 54.2181 47.9788 54.2181 47.5473C54.2181 47.1159 53.8684 46.7661 53.4369 46.7661H49.6008C49.6466 46.2973 49.733 45.8404 49.8568 45.3988H53.437C53.8684 45.3988 54.2182 45.049 54.2182 44.6175C54.2182 44.186 53.8684 43.8363 53.437 43.8363H50.4802C51.8199 41.2974 54.4887 39.5625 57.5559 39.5625C60.7595 39.5625 63.7174 41.5372 64.9438 44.4955C65.0884 44.8443 65.4566 45.0328 65.8134 44.9635C65.8645 44.9537 65.9152 44.9385 65.965 44.9178C66.3636 44.7526 66.5527 44.2955 66.3876 43.897C66.0777 43.1494 65.6716 42.439 65.1846 41.7927L73.0543 44.5409C74.6497 45.0977 76.3613 45.0356 77.8888 44.4202V50.7327C76.3595 50.0949 74.6384 50.0148 73.0301 50.5617L65.2553 53.2053C65.705 52.593 66.0834 51.9257 66.3765 51.2247C66.5429 50.8266 66.3552 50.369 65.957 50.2026C65.565 50.0387 65.099 50.2283 64.9344 50.6219C63.7429 53.4709 60.9157 55.4205 57.8308 55.5271C54.7969 55.6297 51.9045 53.9495 50.4847 51.2671ZM54.2182 56.4938C56.358 57.2888 58.7524 57.2905 60.893 56.4961V61.5823V65.6163C60.893 66.9364 60.1208 68.0797 59.0038 68.6193C58.1974 69.0092 57.2462 69.0523 56.4056 68.7458C55.1302 68.2767 54.2182 67.0509 54.2182 65.6163V56.4938ZM56.5498 70.9713V70.4096C57.22 70.5492 57.9249 70.5472 58.5943 70.4027V70.9713C58.5943 71.5343 58.1359 71.9922 57.5724 71.9922C57.0085 71.9921 56.5498 71.5341 56.5498 70.9713ZM83.8975 71.7515H79.4516V69.3303C79.4516 68.5507 80.0868 67.9164 80.8676 67.9164H82.4815C83.2623 67.9164 83.8975 68.5507 83.8975 69.3303V71.7515Z" fill="black"/>
<path d="M53.5363 115.31V116.642H49.9543V128H48.3163V116.642H44.7343V115.31H53.5363ZM59.6466 117.992C60.5946 117.992 61.4406 118.196 62.1846 118.604C62.9406 119.012 63.5286 119.6 63.9486 120.368C64.3806 121.136 64.5966 122.036 64.5966 123.068C64.5966 124.1 64.3806 125 63.9486 125.768C63.5286 126.524 62.9406 127.106 62.1846 127.514C61.4406 127.922 60.5946 128.126 59.6466 128.126C58.6986 128.126 57.8466 127.922 57.0906 127.514C56.3466 127.106 55.7586 126.524 55.3266 125.768C54.8946 125 54.6786 124.1 54.6786 123.068C54.6786 122.036 54.8946 121.136 55.3266 120.368C55.7586 119.6 56.3466 119.012 57.0906 118.604C57.8466 118.196 58.6986 117.992 59.6466 117.992ZM59.6466 119.432C59.0586 119.432 58.5126 119.564 58.0086 119.828C57.5166 120.092 57.1146 120.5 56.8026 121.052C56.5026 121.592 56.3526 122.264 56.3526 123.068C56.3526 123.86 56.5026 124.532 56.8026 125.084C57.1146 125.624 57.5166 126.026 58.0086 126.29C58.5126 126.554 59.0586 126.686 59.6466 126.686C60.2346 126.686 60.7746 126.554 61.2666 126.29C61.7706 126.026 62.1726 125.624 62.4726 125.084C62.7846 124.532 62.9406 123.86 62.9406 123.068C62.9406 122.264 62.7846 121.592 62.4726 121.052C62.1726 120.5 61.7706 120.092 61.2666 119.828C60.7746 119.564 60.2346 119.432 59.6466 119.432ZM71.213 117.992C72.161 117.992 73.007 118.196 73.751 118.604C74.507 119.012 75.095 119.6 75.515 120.368C75.947 121.136 76.163 122.036 76.163 123.068C76.163 124.1 75.947 125 75.515 125.768C75.095 126.524 74.507 127.106 73.751 127.514C73.007 127.922 72.161 128.126 71.213 128.126C70.265 128.126 69.413 127.922 68.657 127.514C67.913 127.106 67.325 126.524 66.893 125.768C66.461 125 66.245 124.1 66.245 123.068C66.245 122.036 66.461 121.136 66.893 120.368C67.325 119.6 67.913 119.012 68.657 118.604C69.413 118.196 70.265 117.992 71.213 117.992ZM71.213 119.432C70.625 119.432 70.079 119.564 69.575 119.828C69.083 120.092 68.681 120.5 68.369 121.052C68.069 121.592 67.919 122.264 67.919 123.068C67.919 123.86 68.069 124.532 68.369 125.084C68.681 125.624 69.083 126.026 69.575 126.29C70.079 126.554 70.625 126.686 71.213 126.686C71.801 126.686 72.341 126.554 72.833 126.29C73.337 126.026 73.739 125.624 74.039 125.084C74.351 124.532 74.507 123.86 74.507 123.068C74.507 122.264 74.351 121.592 74.039 121.052C73.739 120.5 73.337 120.092 72.833 119.828C72.341 119.564 71.801 119.432 71.213 119.432ZM79.9354 114.68V128H78.2974V114.68H79.9354ZM85.6649 117.992C86.7809 117.992 87.6749 118.286 88.3469 118.874C89.0309 119.45 89.4449 120.23 89.5889 121.214H88.0229C87.9509 120.626 87.7049 120.146 87.2849 119.774C86.8769 119.39 86.3249 119.198 85.6289 119.198C85.0409 119.198 84.5789 119.342 84.2429 119.63C83.9189 119.906 83.7569 120.284 83.7569 120.764C83.7569 121.124 83.8649 121.418 84.0809 121.646C84.3089 121.862 84.5849 122.03 84.9089 122.15C85.2449 122.258 85.7009 122.378 86.2769 122.51C87.0089 122.678 87.5969 122.852 88.0409 123.032C88.4969 123.2 88.8809 123.476 89.1929 123.86C89.5169 124.244 89.6789 124.76 89.6789 125.408C89.6789 126.212 89.3729 126.866 88.7609 127.37C88.1609 127.874 87.3569 128.126 86.3489 128.126C85.1729 128.126 84.2129 127.844 83.4689 127.28C82.7249 126.716 82.2869 125.93 82.1549 124.922H83.7389C83.7989 125.522 84.0569 126.008 84.5129 126.38C84.9809 126.752 85.5929 126.938 86.3489 126.938C86.9129 126.938 87.3509 126.794 87.6629 126.506C87.9869 126.218 88.1489 125.84 88.1489 125.372C88.1489 124.988 88.0349 124.682 87.8069 124.454C87.5789 124.226 87.2969 124.052 86.9609 123.932C86.6249 123.812 86.1629 123.686 85.5749 123.554C84.8429 123.386 84.2549 123.218 83.8109 123.05C83.3789 122.882 83.0069 122.618 82.6949 122.258C82.3949 121.886 82.2449 121.388 82.2449 120.764C82.2449 119.936 82.5509 119.27 83.1629 118.766C83.7749 118.25 84.6089 117.992 85.6649 117.992Z" fill="#0C0D36"/>
</svg>
