<svg width="134" height="155" viewBox="0 0 134 155" fill="none" xmlns="http://www.w3.org/2000/svg">
<rect width="134" height="155" rx="8" fill="#F4F4F4"/>
<circle cx="67" cy="58" r="38" fill="#E4E4E4"/>
<path d="M84.4729 40.3256C82.922 38.8259 80.8798 38.0001 78.7225 38.0001C76.5652 38.0001 74.523 38.826 72.972 40.3257L72.868 40.4264C70.3435 42.8676 69.6359 46.6502 71.1076 49.8389L73.7136 55.4858V74.5055C73.7136 76.4296 75.2789 77.9949 77.2031 77.9949H79.9105C81.8345 77.9949 83.3998 76.4296 83.3998 74.5055V55.4941L86.1426 49.9284C87.7371 46.6925 87.0662 42.8334 84.4729 40.3256ZM81.8375 74.5054C81.8375 75.568 80.973 76.4326 79.9104 76.4326H77.203C76.1403 76.4326 75.2758 75.568 75.2758 74.5054V62.6062H78.7145V67.641C78.7145 68.0724 79.0641 68.4222 79.4956 68.4222C79.927 68.4222 80.2768 68.0724 80.2768 67.641V62.6062H81.8374V74.5054H81.8375ZM75.2758 61.0439V56.0765H76.4608C76.462 56.0765 76.4631 56.0767 76.4641 56.0767C76.4654 56.0767 76.4666 56.0765 76.4678 56.0765H80.873C80.8742 56.0765 80.8755 56.0767 80.8766 56.0767C80.8778 56.0767 80.8789 56.0765 80.88 56.0765H81.8374V61.0439H75.2758ZM84.7411 49.2379L82.141 54.5143H81.7979L82.4274 50.7369C82.4984 50.3114 82.2109 49.9089 81.7853 49.8379C81.3598 49.7672 80.9573 50.0545 80.8863 50.4801L80.214 54.5143H79.3378V50.6085C79.3378 50.1772 78.9881 49.8273 78.5566 49.8273C78.1252 49.8273 77.7755 50.1771 77.7755 50.6085V54.5143H77.1268L76.4544 50.48C76.3835 50.0547 75.9809 49.7672 75.5554 49.8379C75.1298 49.9089 74.8423 50.3114 74.9133 50.737L75.5429 54.5143H74.9857L72.5259 49.1843C71.3323 46.5979 71.9062 43.5297 73.9541 41.5494L74.0581 41.4487C76.6737 38.9197 80.7713 38.9197 83.3867 41.4487C85.4903 43.4829 86.0346 46.6131 84.7411 49.2379Z" fill="black"/>
<path d="M57.4674 63.0047V59.5598C57.4674 58.9206 57.0812 58.3705 56.5301 58.1289V53.3021C56.5301 52.4367 56.0562 51.6453 55.2934 51.2365L52.7937 49.8971C52.0606 49.5044 51.1969 49.5247 50.4832 49.9521C49.7695 50.3792 49.3435 51.1308 49.3435 51.9626V58.1288C48.7924 58.3704 48.4062 58.9205 48.4062 59.5597V63.0047C47.6177 63.0833 47 63.7503 47 64.5591V75.6514C47 76.9436 48.0512 77.9949 49.3434 77.9949H56.53C57.8222 77.9949 58.8734 76.9436 58.8734 75.6514V64.5591C58.8735 63.7504 58.2558 63.0834 57.4674 63.0047ZM50.9058 51.9626C50.9058 51.563 51.1715 51.3608 51.2856 51.2924C51.3998 51.2241 51.7036 51.0855 52.0558 51.2741L54.5555 52.6135C54.8098 52.7498 54.9676 53.0136 54.9676 53.302V57.9974H50.9058V51.9626ZM49.9684 59.5598H50.1246H55.7489H55.9051V62.9968H49.9684V59.5598H49.9684ZM57.3112 75.6515C57.3112 76.0822 56.9608 76.4327 56.53 76.4327H55.1239V70.496C55.1239 70.0646 54.7742 69.7148 54.3427 69.7148C53.9113 69.7148 53.5616 70.0646 53.5616 70.496V76.4327H49.3434C48.9127 76.4327 48.5623 76.0823 48.5623 75.6515V64.5592H57.3112V75.6515Z" fill="black"/>
<path d="M54.895 66.9752C54.7496 66.8299 54.5489 66.7463 54.3427 66.7463C54.1372 66.7463 53.9357 66.8299 53.7904 66.9752C53.6451 67.1206 53.5615 67.322 53.5615 67.5275C53.5615 67.733 53.6451 67.9345 53.7904 68.0797C53.9357 68.225 54.1372 68.3087 54.3427 68.3087C54.5489 68.3087 54.7496 68.2251 54.895 68.0797C55.0403 67.9345 55.1239 67.733 55.1239 67.5275C55.1239 67.322 55.0403 67.1205 54.895 66.9752Z" fill="black"/>
<path d="M69.9658 57.2164H66.3725V49.5611H67.7014C68.1328 49.5611 68.4826 49.2113 68.4826 48.7799C68.4826 48.3485 68.1329 47.9987 67.7014 47.9987H66.3725V47.0614H67.7014C68.1328 47.0614 68.4826 46.7116 68.4826 46.2802C68.4826 45.8488 68.1329 45.499 67.7014 45.499H66.3725V44.5617H67.7014C68.1328 44.5617 68.4826 44.2119 68.4826 43.7805C68.4826 43.3491 68.1329 42.9994 67.7014 42.9994H66.3725V42.062H67.7014C68.1328 42.062 68.4826 41.7123 68.4826 41.2809C68.4826 40.8494 68.1329 40.4997 67.7014 40.4997H66.3725V39.5623H67.7014C68.1328 39.5623 68.4826 39.2126 68.4826 38.7812C68.4826 38.3498 68.1329 38 67.7014 38H63.4814C63.05 38 62.7002 38.3498 62.7002 38.7812C62.7002 39.2126 63.0499 39.5623 63.4814 39.5623H64.8102V40.4997H63.4813C63.0499 40.4997 62.7002 40.8494 62.7002 41.2809C62.7002 41.7123 63.0498 42.062 63.4813 42.062H64.8102V42.9994H63.4813C63.0499 42.9994 62.7002 43.3491 62.7002 43.7805C62.7002 44.2119 63.0498 44.5617 63.4813 44.5617H64.8102V45.499H63.4813C63.0499 45.499 62.7002 45.8488 62.7002 46.2802C62.7002 46.7116 63.0498 47.0614 63.4813 47.0614H64.8102V47.9987H63.4813C63.0499 47.9987 62.7002 48.3485 62.7002 48.7799C62.7002 49.2113 63.0498 49.5611 63.4813 49.5611H64.8102V57.2164H61.217C60.7856 57.2164 60.4358 57.5661 60.4358 57.9975V66.7232C60.4358 70.5655 61.4884 74.333 63.48 77.6187C63.6216 77.8522 63.8748 77.9948 64.148 77.9948H67.0347C67.3079 77.9948 67.5612 77.8522 67.7027 77.6187C69.6943 74.333 70.7469 70.5654 70.7469 66.7232V57.9975C70.7469 57.566 70.3972 57.2164 69.9658 57.2164ZM69.1846 66.7231C69.1846 70.1338 68.2883 73.4814 66.5889 76.4326H64.5936C62.8943 73.4813 61.998 70.1338 61.998 66.7231V62.2156H66.7052C67.1366 62.2156 67.4864 61.8659 67.4864 61.4345C67.4864 61.0031 67.1367 60.6533 66.7052 60.6533H61.998V58.7785H69.1845V66.7231H69.1846Z" fill="black"/>
<path d="M80.048 69.8225C79.9027 69.6772 79.7012 69.5936 79.4958 69.5936C79.2903 69.5936 79.0888 69.6771 78.9435 69.8225C78.7982 69.9678 78.7146 70.1693 78.7146 70.3748C78.7146 70.5803 78.7982 70.7818 78.9435 70.927C79.0888 71.0731 79.2903 71.156 79.4958 71.156C79.7012 71.156 79.9027 71.0731 80.048 70.927C80.1933 70.7818 80.2769 70.581 80.2769 70.3748C80.2769 70.1693 80.1933 69.9678 80.048 69.8225Z" fill="black"/>
<path d="M42.5104 115.544V128H40.8724V118.712L36.7324 128H35.5804L31.4224 118.694V128H29.7844V115.544H31.5484L36.1564 125.84L40.7644 115.544H42.5104ZM44.6763 123.032C44.6763 122.024 44.8803 121.142 45.2883 120.386C45.6963 119.618 46.2543 119.024 46.9623 118.604C47.6823 118.184 48.4803 117.974 49.3563 117.974C50.2203 117.974 50.9703 118.16 51.6063 118.532C52.2423 118.904 52.7163 119.372 53.0283 119.936V118.136H54.6843V128H53.0283V126.164C52.7043 126.74 52.2183 127.22 51.5703 127.604C50.9343 127.976 50.1903 128.162 49.3383 128.162C48.4623 128.162 47.6703 127.946 46.9623 127.514C46.2543 127.082 45.6963 126.476 45.2883 125.696C44.8803 124.916 44.6763 124.028 44.6763 123.032ZM53.0283 123.05C53.0283 122.306 52.8783 121.658 52.5783 121.106C52.2783 120.554 51.8703 120.134 51.3543 119.846C50.8503 119.546 50.2923 119.396 49.6803 119.396C49.0683 119.396 48.5103 119.54 48.0063 119.828C47.5023 120.116 47.1003 120.536 46.8003 121.088C46.5003 121.64 46.3503 122.288 46.3503 123.032C46.3503 123.788 46.5003 124.448 46.8003 125.012C47.1003 125.564 47.5023 125.99 48.0063 126.29C48.5103 126.578 49.0683 126.722 49.6803 126.722C50.2923 126.722 50.8503 126.578 51.3543 126.29C51.8703 125.99 52.2783 125.564 52.5783 125.012C52.8783 124.448 53.0283 123.794 53.0283 123.05ZM62.9604 128L59.0904 123.644V128H57.4524V114.68H59.0904V122.51L62.8884 118.136H65.1744L60.5304 123.05L65.1924 128H62.9604ZM75.7161 122.69C75.7161 123.002 75.6981 123.332 75.6621 123.68H67.7781C67.8381 124.652 68.1681 125.414 68.7681 125.966C69.3801 126.506 70.1181 126.776 70.9821 126.776C71.6901 126.776 72.2781 126.614 72.7461 126.29C73.2261 125.954 73.5621 125.51 73.7541 124.958H75.5181C75.2541 125.906 74.7261 126.68 73.9341 127.28C73.1421 127.868 72.1581 128.162 70.9821 128.162C70.0461 128.162 69.2061 127.952 68.4621 127.532C67.7301 127.112 67.1541 126.518 66.7341 125.75C66.3141 124.97 66.1041 124.07 66.1041 123.05C66.1041 122.03 66.3081 121.136 66.7161 120.368C67.1241 119.6 67.6941 119.012 68.4261 118.604C69.1701 118.184 70.0221 117.974 70.9821 117.974C71.9181 117.974 72.7461 118.178 73.4661 118.586C74.1861 118.994 74.7381 119.558 75.1221 120.278C75.5181 120.986 75.7161 121.79 75.7161 122.69ZM74.0241 122.348C74.0241 121.724 73.8861 121.19 73.6101 120.746C73.3341 120.29 72.9561 119.948 72.4761 119.72C72.0081 119.48 71.4861 119.36 70.9101 119.36C70.0821 119.36 69.3741 119.624 68.7861 120.152C68.2101 120.68 67.8801 121.412 67.7961 122.348H74.0241ZM84.279 115.454V123.392C84.279 124.508 84.549 125.336 85.089 125.876C85.641 126.416 86.403 126.686 87.375 126.686C88.335 126.686 89.085 126.416 89.625 125.876C90.177 125.336 90.453 124.508 90.453 123.392V115.454H92.091V123.374C92.091 124.418 91.881 125.3 91.461 126.02C91.041 126.728 90.471 127.256 89.751 127.604C89.043 127.952 88.245 128.126 87.357 128.126C86.469 128.126 85.665 127.952 84.945 127.604C84.237 127.256 83.673 126.728 83.253 126.02C82.845 125.3 82.641 124.418 82.641 123.374V115.454H84.279ZM96.4615 119.954C96.7855 119.39 97.2655 118.922 97.9015 118.55C98.5495 118.166 99.2995 117.974 100.152 117.974C101.028 117.974 101.82 118.184 102.527 118.604C103.247 119.024 103.812 119.618 104.22 120.386C104.628 121.142 104.832 122.024 104.832 123.032C104.832 124.028 104.628 124.916 104.22 125.696C103.812 126.476 103.247 127.082 102.527 127.514C101.82 127.946 101.028 128.162 100.152 128.162C99.3115 128.162 98.5675 127.976 97.9195 127.604C97.2835 127.22 96.7975 126.746 96.4615 126.182V132.68H94.8235V118.136H96.4615V119.954ZM103.158 123.032C103.158 122.288 103.008 121.64 102.708 121.088C102.408 120.536 102 120.116 101.484 119.828C100.98 119.54 100.422 119.396 99.8095 119.396C99.2095 119.396 98.6515 119.546 98.1355 119.846C97.6315 120.134 97.2235 120.56 96.9115 121.124C96.6115 121.676 96.4615 122.318 96.4615 123.05C96.4615 123.794 96.6115 124.448 96.9115 125.012C97.2235 125.564 97.6315 125.99 98.1355 126.29C98.6515 126.578 99.2095 126.722 99.8095 126.722C100.422 126.722 100.98 126.578 101.484 126.29C102 125.99 102.408 125.564 102.708 125.012C103.008 124.448 103.158 123.788 103.158 123.032Z" fill="#0C0D36"/>
</svg>
