<svg width="134" height="155" viewBox="0 0 134 155" fill="none" xmlns="http://www.w3.org/2000/svg">
<rect width="134" height="155" rx="8" fill="#F4F4F4"/>
<circle cx="67" cy="58" r="38" fill="#E4E4E4"/>
<path d="M81.2712 51.4237V43.8757C81.2712 39.5367 78.2429 38 75.3955 38H58.4915C55.6441 38 52.6158 39.5367 52.6158 43.8757V51.4237C50.5367 51.9661 49 53.8192 49 56.0791V68.1921C49 71.7627 51.3955 73.1638 53.7458 73.2994V76.3729C53.7458 77.2768 54.4689 78 55.3729 78H57.0452C57.9492 78 58.6723 77.2768 58.6723 76.3729V73.2994H75.2599V76.3729C75.2599 77.2768 75.983 78 76.887 78H78.5593C79.4633 78 80.1864 77.2768 80.1864 76.3729V73.2994C83.6667 73.1186 84.9322 70.5876 84.9322 68.1921V56.0339C84.8418 53.8192 83.3051 51.9209 81.2712 51.4237ZM54.2429 43.8757C54.2429 40.1695 56.9096 39.5819 58.4915 39.5819H75.3955C76.9774 39.5819 79.6441 40.1243 79.6441 43.8305V51.2429C77.2034 51.4689 75.2599 53.5028 75.2599 56.0339V57.1638H58.6271V56.0339C58.6271 53.5028 56.6836 51.4689 54.2429 51.2429V43.8757ZM75.2147 58.791V64.3955H58.6271V58.791H75.2147ZM57.0452 76.3729H55.3729V73.2994H57.0452V76.3729ZM78.5141 76.3729H76.8418V73.2994H78.5141V76.3729ZM83.3051 68.1921H83.2599C83.2599 69.774 82.6723 71.7175 79.7345 71.7175H78.5141H76.8418H57.0452H55.3729H54.1525C52.5706 71.7175 50.6271 71.1299 50.6271 68.1921V56.0339C50.6271 54.2712 52.0734 52.8249 53.8362 52.8249C55.5989 52.8249 57.0452 54.2712 57.0452 56.0339V65.209C57.0452 65.661 57.4068 66.0226 57.8588 66.0226H76.0734C76.5254 66.0226 76.887 65.661 76.887 65.209V56.0339C76.887 54.2712 78.3333 52.8249 80.096 52.8249C81.8588 52.8249 83.3051 54.2712 83.3051 56.0339V68.1921Z" fill="black"/>
<path d="M35.8833 115.454V116.786H30.4293V121.016H34.8573V122.348H30.4293V128H28.7913V115.454H35.8833ZM46.6096 118.136V128H44.9716V126.542C44.6596 127.046 44.2216 127.442 43.6576 127.73C43.1056 128.006 42.4936 128.144 41.8216 128.144C41.0536 128.144 40.3636 127.988 39.7516 127.676C39.1396 127.352 38.6536 126.872 38.2936 126.236C37.9456 125.6 37.7716 124.826 37.7716 123.914V118.136H39.3916V123.698C39.3916 124.67 39.6376 125.42 40.1296 125.948C40.6216 126.464 41.2936 126.722 42.1456 126.722C43.0216 126.722 43.7116 126.452 44.2156 125.912C44.7196 125.372 44.9716 124.586 44.9716 123.554V118.136H46.6096ZM51.0133 119.738C51.3013 119.174 51.7093 118.736 52.2373 118.424C52.7773 118.112 53.4313 117.956 54.1993 117.956V119.648H53.7673C51.9313 119.648 51.0133 120.644 51.0133 122.636V128H49.3753V118.136H51.0133V119.738ZM60.8961 117.956C62.0961 117.956 63.0681 118.322 63.8121 119.054C64.5561 119.774 64.9281 120.818 64.9281 122.186V128H63.3081V122.42C63.3081 121.436 63.0621 120.686 62.5701 120.17C62.0781 119.642 61.4061 119.378 60.5541 119.378C59.6901 119.378 59.0001 119.648 58.4841 120.188C57.9801 120.728 57.7281 121.514 57.7281 122.546V128H56.0901V118.136H57.7281V119.54C58.0521 119.036 58.4901 118.646 59.0421 118.37C59.6061 118.094 60.2241 117.956 60.8961 117.956ZM68.4498 116.534C68.1378 116.534 67.8738 116.426 67.6578 116.21C67.4418 115.994 67.3338 115.73 67.3338 115.418C67.3338 115.106 67.4418 114.842 67.6578 114.626C67.8738 114.41 68.1378 114.302 68.4498 114.302C68.7498 114.302 69.0018 114.41 69.2058 114.626C69.4218 114.842 69.5298 115.106 69.5298 115.418C69.5298 115.73 69.4218 115.994 69.2058 116.21C69.0018 116.426 68.7498 116.534 68.4498 116.534ZM69.2418 118.136V128H67.6038V118.136H69.2418ZM74.0315 119.486V125.3C74.0315 125.78 74.1335 126.122 74.3375 126.326C74.5415 126.518 74.8955 126.614 75.3995 126.614H76.6055V128H75.1295C74.2175 128 73.5335 127.79 73.0775 127.37C72.6215 126.95 72.3935 126.26 72.3935 125.3V119.486H71.1155V118.136H72.3935V115.652H74.0315V118.136H76.6055V119.486H74.0315ZM87.3381 118.136V128H85.7001V126.542C85.3881 127.046 84.9501 127.442 84.3861 127.73C83.8341 128.006 83.2221 128.144 82.5501 128.144C81.7821 128.144 81.0921 127.988 80.4801 127.676C79.8681 127.352 79.3821 126.872 79.0221 126.236C78.6741 125.6 78.5001 124.826 78.5001 123.914V118.136H80.1201V123.698C80.1201 124.67 80.3661 125.42 80.8581 125.948C81.3501 126.464 82.0221 126.722 82.8741 126.722C83.7501 126.722 84.4401 126.452 84.9441 125.912C85.4481 125.372 85.7001 124.586 85.7001 123.554V118.136H87.3381ZM91.7418 119.738C92.0298 119.174 92.4378 118.736 92.9658 118.424C93.5058 118.112 94.1598 117.956 94.9278 117.956V119.648H94.4958C92.6598 119.648 91.7418 120.644 91.7418 122.636V128H90.1038V118.136H91.7418V119.738ZM105.819 122.69C105.819 123.002 105.801 123.332 105.765 123.68H97.8806C97.9406 124.652 98.2706 125.414 98.8706 125.966C99.4826 126.506 100.221 126.776 101.085 126.776C101.793 126.776 102.381 126.614 102.849 126.29C103.329 125.954 103.665 125.51 103.857 124.958H105.621C105.357 125.906 104.829 126.68 104.037 127.28C103.245 127.868 102.261 128.162 101.085 128.162C100.149 128.162 99.3086 127.952 98.5646 127.532C97.8326 127.112 97.2566 126.518 96.8366 125.75C96.4166 124.97 96.2066 124.07 96.2066 123.05C96.2066 122.03 96.4106 121.136 96.8186 120.368C97.2266 119.6 97.7966 119.012 98.5286 118.604C99.2726 118.184 100.125 117.974 101.085 117.974C102.021 117.974 102.849 118.178 103.569 118.586C104.289 118.994 104.841 119.558 105.225 120.278C105.621 120.986 105.819 121.79 105.819 122.69ZM104.127 122.348C104.127 121.724 103.989 121.19 103.713 120.746C103.437 120.29 103.059 119.948 102.579 119.72C102.111 119.48 101.589 119.36 101.013 119.36C100.185 119.36 99.4766 119.624 98.8886 120.152C98.3126 120.68 97.9826 121.412 97.8986 122.348H104.127Z" fill="#0C0D36"/>
</svg>
